<?xml version="1.0"?><svg width="286.91379" height="286.91379" xmlns="http://www.w3.org/2000/svg">

 <metadata id="metadata4781">image/svg+xml</metadata>
 <g>
  <title>Layer 1</title>
  <g stroke="#ffffff" id="g3885">
   <path fill="none" stroke="#ffffff" stroke-width="14.992085" stroke-linecap="round" stroke-miterlimit="4" stroke-dashoffset="0" id="path2816" d="m263.511353,140.45726c0,68.701294 -55.317215,124.394699 -123.554398,124.394699c-68.237221,0 -123.55438,-55.693405 -123.55438,-124.394699c0,-68.701271 55.31716,-124.39468 123.55438,-124.39468c68.237183,0 123.554398,55.693409 123.554398,124.39468z"/>
   <path fill="none" stroke="#ffffff" stroke-width="14" stroke-miterlimit="4" d="m36.700836,76.188637l211.689911,0" id="path3592"/>
   <path fill="none" stroke="#ffffff" stroke-width="14" stroke-miterlimit="4" d="m34.180717,202.024689l216.730156,0" id="path3592-2"/>
   <path fill="none" stroke="#ffffff" stroke-width="14" stroke-miterlimit="4" d="m21.58013,140.084671l236.891092,0" id="path3592-2-5"/>
   <path fill="none" stroke="#ffffff" stroke-width="14" stroke-miterlimit="4" d="m137.820572,259.726715l0,-239.936106" id="path3592-4-4-3"/>
   <path fill="none" stroke="#ffffff" stroke-width="14" stroke-miterlimit="4" d="m137.820572,259.726715c-75.918556,-27.057999 -88.519146,-196.578087 0,-239.936106" id="path3592-4-4-3-0"/>
   <path fill="none" stroke="#ffffff" stroke-width="14" stroke-miterlimit="4" d="m137.820572,259.726715c87.889114,-40.098007 87.889114,-196.578087 0,-239.936106" id="path3592-4-4-3-8"/>
  </g>
 </g>
</svg>